<svg width="269" height="269" viewBox="0 0 269 269" fill="none" xmlns="http://www.w3.org/2000/svg">
<circle cx="134.5" cy="134.5" r="134.5" fill="#E0C795"/>
<circle cx="134.5" cy="134.5" r="116.5" fill="#FCDC6B"/>
<rect x="87.6101" y="59.25" width="21" height="16" rx="1" transform="rotate(46.5215 87.6101 59.25)" fill="#F4E6B5"/>
<mask id="mask0" mask-type="alpha" maskUnits="userSpaceOnUse" x="76" y="59" width="27" height="27">
<rect x="88.0292" y="59.1639" width="20.792" height="16.125" rx="1" transform="rotate(46.5215 88.0292 59.1639)" fill="#CCA826"/>
</mask>
<g mask="url(#mask0)">
<rect x="94.1577" y="62.3562" width="1.37506" height="23.376" transform="rotate(62.6266 94.1577 62.3562)" fill="#CCBB99"/>
<rect x="97.0931" y="65.4518" width="1.37506" height="23.376" transform="rotate(62.6266 97.0931 65.4518)" fill="#CCBB99"/>
<rect x="99.9315" y="68.4451" width="1.37506" height="23.376" transform="rotate(62.6266 99.9315 68.4451)" fill="#CCBB99"/>
<rect x="102.914" y="71.5901" width="1.37506" height="23.376" transform="rotate(62.6266 102.914 71.5901)" fill="#CCBB99"/>
</g>
<rect x="68.1865" y="144.321" width="21" height="16" rx="1" transform="rotate(19.3627 68.1865 144.321)" fill="#F4E6B5"/>
<mask id="mask1" mask-type="alpha" maskUnits="userSpaceOnUse" x="63" y="144" width="26" height="23">
<rect x="68.5201" y="144.053" width="20.792" height="16.125" rx="1" transform="rotate(19.3627 68.5201 144.053)" fill="#CCA826"/>
</mask>
<g mask="url(#mask1)">
<rect x="75.43" y="144.096" width="1.37506" height="23.376" transform="rotate(35.4679 75.43 144.096)" fill="#CCBB99"/>
<rect x="79.4548" y="145.511" width="1.37506" height="23.376" transform="rotate(35.4679 79.4548 145.511)" fill="#CCBB99"/>
<rect x="83.3466" y="146.878" width="1.37506" height="23.376" transform="rotate(35.4679 83.3466 146.878)" fill="#CCBB99"/>
<rect x="87.4356" y="148.315" width="1.37506" height="23.376" transform="rotate(35.4679 87.4356 148.315)" fill="#CCBB99"/>
</g>
<rect x="133.588" y="166.116" width="21" height="16" rx="1" transform="rotate(49.3183 133.588 166.116)" fill="#F4E6B5"/>
<mask id="mask2" mask-type="alpha" maskUnits="userSpaceOnUse" x="121" y="166" width="27" height="27">
<rect x="134.01" y="166.05" width="20.792" height="16.125" rx="1" transform="rotate(49.3183 134.01 166.05)" fill="#CCA826"/>
</mask>
<g mask="url(#mask2)">
<rect x="139.976" y="169.538" width="1.37506" height="23.376" transform="rotate(65.4234 139.976 169.538)" fill="#CCBB99"/>
<rect x="142.757" y="172.773" width="1.37506" height="23.376" transform="rotate(65.4234 142.757 172.773)" fill="#CCBB99"/>
<rect x="145.446" y="175.901" width="1.37506" height="23.376" transform="rotate(65.4234 145.446 175.901)" fill="#CCBB99"/>
<rect x="148.271" y="179.188" width="1.37506" height="23.376" transform="rotate(65.4234 148.271 179.188)" fill="#CCBB99"/>
</g>
<rect x="118.347" y="100.623" width="21" height="16" rx="1" transform="rotate(25.2902 118.347 100.623)" fill="#F4E6B5"/>
<mask id="mask3" mask-type="alpha" maskUnits="userSpaceOnUse" x="111" y="100" width="27" height="24">
<rect x="118.707" y="100.391" width="20.792" height="16.125" rx="1" transform="rotate(25.2902 118.707 100.391)" fill="#CCA826"/>
</mask>
<g mask="url(#mask3)">
<rect x="125.575" y="101.147" width="1.37506" height="23.376" transform="rotate(41.3954 125.575 101.147)" fill="#CCBB99"/>
<rect x="129.432" y="102.97" width="1.37506" height="23.376" transform="rotate(41.3954 129.432 102.97)" fill="#CCBB99"/>
<rect x="133.162" y="104.732" width="1.37506" height="23.376" transform="rotate(41.3954 133.162 104.732)" fill="#CCBB99"/>
<rect x="137.081" y="106.584" width="1.37506" height="23.376" transform="rotate(41.3954 137.081 106.584)" fill="#CCBB99"/>
</g>
<rect x="166.965" y="72.3571" width="21" height="16" rx="1" transform="rotate(10.6796 166.965 72.3571)" fill="#F4E6B5"/>
<mask id="mask4" mask-type="alpha" maskUnits="userSpaceOnUse" x="164" y="72" width="24" height="20">
<rect x="167.254" y="72.0419" width="20.792" height="16.125" rx="1" transform="rotate(10.6796 167.254 72.0419)" fill="#CCA826"/>
</mask>
<g mask="url(#mask4)">
<rect x="174.092" y="71.0411" width="1.37506" height="23.376" transform="rotate(26.7848 174.092 71.0411)" fill="#CCBB99"/>
<rect x="178.284" y="71.8317" width="1.37506" height="23.376" transform="rotate(26.7848 178.284 71.8317)" fill="#CCBB99"/>
<rect x="182.337" y="72.5962" width="1.37506" height="23.376" transform="rotate(26.7848 182.337 72.5962)" fill="#CCBB99"/>
<rect x="186.596" y="73.3993" width="1.37506" height="23.376" transform="rotate(26.7848 186.596 73.3993)" fill="#CCBB99"/>
</g>
<rect x="199.959" y="166.327" width="21" height="16" rx="1" transform="rotate(25.7831 199.959 166.327)" fill="#F4E6B5"/>
<mask id="mask5" mask-type="alpha" maskUnits="userSpaceOnUse" x="193" y="166" width="27" height="24">
<rect x="200.321" y="166.098" width="20.792" height="16.125" rx="1" transform="rotate(25.7831 200.321 166.098)" fill="#CCA826"/>
</mask>
<g mask="url(#mask5)">
<rect x="207.183" y="166.914" width="1.37506" height="23.376" transform="rotate(41.8882 207.183 166.914)" fill="#CCBB99"/>
<rect x="211.024" y="168.769" width="1.37506" height="23.376" transform="rotate(41.8882 211.024 168.769)" fill="#CCBB99"/>
<rect x="214.739" y="170.563" width="1.37506" height="23.376" transform="rotate(41.8882 214.739 170.563)" fill="#CCBB99"/>
<rect x="218.641" y="172.449" width="1.37506" height="23.376" transform="rotate(41.8882 218.641 172.449)" fill="#CCBB99"/>
</g>
<rect x="161.38" y="205.199" width="21" height="16" rx="1" transform="rotate(56.7442 161.38 205.199)" fill="#F4E6B5"/>
<mask id="mask6" mask-type="alpha" maskUnits="userSpaceOnUse" x="148" y="205" width="26" height="27">
<rect x="161.807" y="205.189" width="20.792" height="16.125" rx="1" transform="rotate(56.7442 161.807 205.189)" fill="#CCA826"/>
</mask>
<g mask="url(#mask6)">
<rect x="167.272" y="209.418" width="1.37506" height="23.376" transform="rotate(72.8493 167.272 209.418)" fill="#CCBB99"/>
<rect x="169.611" y="212.986" width="1.37506" height="23.376" transform="rotate(72.8493 169.611 212.986)" fill="#CCBB99"/>
<rect x="171.874" y="216.435" width="1.37506" height="23.376" transform="rotate(72.8493 171.874 216.435)" fill="#CCBB99"/>
<rect x="174.25" y="220.059" width="1.37506" height="23.376" transform="rotate(72.8493 174.25 220.059)" fill="#CCBB99"/>
</g>
<rect x="76.8938" y="198.128" width="21" height="16" rx="1" transform="rotate(-9.11834 76.8938 198.128)" fill="#F4E6B5"/>
<mask id="mask7" mask-type="alpha" maskUnits="userSpaceOnUse" x="77" y="194" width="24" height="20">
<rect x="77.0592" y="197.733" width="20.792" height="16.125" rx="1" transform="rotate(-9.11834 77.0592 197.733)" fill="#CCA826"/>
</mask>
<g mask="url(#mask7)">
<rect x="83.1533" y="194.476" width="1.37506" height="23.376" transform="rotate(6.9868 83.1533 194.476)" fill="#CCBB99"/>
<rect x="87.3655" y="193.8" width="1.37506" height="23.376" transform="rotate(6.9868 87.3655 193.8)" fill="#CCBB99"/>
<rect x="91.4385" y="193.146" width="1.37506" height="23.376" transform="rotate(6.9868 91.4385 193.146)" fill="#CCBB99"/>
<rect x="95.7179" y="192.459" width="1.37506" height="23.376" transform="rotate(6.9868 95.7179 192.459)" fill="#CCBB99"/>
</g>
<rect x="124.432" y="45.4327" width="21" height="16" rx="1" transform="rotate(-33.3699 124.432 45.4327)" fill="#F4E6B5"/>
<mask id="mask8" mask-type="alpha" maskUnits="userSpaceOnUse" x="124" y="33" width="27" height="26">
<rect x="124.421" y="45.005" width="20.792" height="16.125" rx="1" transform="rotate(-33.3699 124.421 45.005)" fill="#CCA826"/>
</mask>
<g mask="url(#mask8)">
<rect x="128.639" y="39.532" width="1.37506" height="23.376" transform="rotate(-17.2648 128.639 39.532)" fill="#CCBB99"/>
<rect x="132.202" y="37.1854" width="1.37506" height="23.376" transform="rotate(-17.2648 132.202 37.1854)" fill="#CCBB99"/>
<rect x="135.647" y="34.9164" width="1.37506" height="23.376" transform="rotate(-17.2648 135.647 34.9164)" fill="#CCBB99"/>
<rect x="139.267" y="32.5325" width="1.37506" height="23.376" transform="rotate(-17.2648 139.267 32.5325)" fill="#CCBB99"/>
</g>
<rect x="206.069" y="114.35" width="21" height="16" rx="1" transform="rotate(-10.9521 206.069 114.35)" fill="#F4E6B5"/>
<mask id="mask9" mask-type="alpha" maskUnits="userSpaceOnUse" x="206" y="110" width="24" height="20">
<rect x="206.222" y="113.95" width="20.792" height="16.125" rx="1" transform="rotate(-10.9521 206.222 113.95)" fill="#CCA826"/>
</mask>
<g mask="url(#mask9)">
<rect x="212.208" y="110.5" width="1.37506" height="23.376" transform="rotate(5.15305 212.208 110.5)" fill="#CCBB99"/>
<rect x="216.397" y="109.689" width="1.37506" height="23.376" transform="rotate(5.15305 216.397 109.689)" fill="#CCBB99"/>
<rect x="220.447" y="108.905" width="1.37506" height="23.376" transform="rotate(5.15305 220.447 108.905)" fill="#CCBB99"/>
<rect x="224.702" y="108.082" width="1.37506" height="23.376" transform="rotate(5.15305 224.702 108.082)" fill="#CCBB99"/>
</g>
<rect x="153.054" y="143.128" width="21" height="16" rx="1" transform="rotate(-18.6205 153.054 143.128)" fill="#F4E6B5"/>
<mask id="mask10" mask-type="alpha" maskUnits="userSpaceOnUse" x="153" y="136" width="26" height="22">
<rect x="153.152" y="142.712" width="20.792" height="16.125" rx="1" transform="rotate(-18.6205 153.152 142.712)" fill="#CCA826"/>
</mask>
<g mask="url(#mask10)">
<rect x="158.624" y="138.493" width="1.37506" height="23.376" transform="rotate(-2.51535 158.624 138.493)" fill="#CCBB99"/>
<rect x="162.667" y="137.131" width="1.37506" height="23.376" transform="rotate(-2.51535 162.667 137.131)" fill="#CCBB99"/>
<rect x="166.576" y="135.814" width="1.37506" height="23.376" transform="rotate(-2.51535 166.576 135.814)" fill="#CCBB99"/>
<rect x="170.684" y="134.43" width="1.37506" height="23.376" transform="rotate(-2.51535 170.684 134.43)" fill="#CCBB99"/>
</g>
<rect x="38.4149" y="107.513" width="21" height="16" rx="1" transform="rotate(-38.0958 38.4149 107.513)" fill="#F4E6B5"/>
<mask id="mask11" mask-type="alpha" maskUnits="userSpaceOnUse" x="38" y="94" width="27" height="26">
<rect x="38.3684" y="107.087" width="20.792" height="16.125" rx="1" transform="rotate(-38.0958 38.3684 107.087)" fill="#CCA826"/>
</mask>
<g mask="url(#mask11)">
<rect x="42.1215" y="101.285" width="1.37506" height="23.376" transform="rotate(-21.9906 42.1215 101.285)" fill="#CCBB99"/>
<rect x="45.4789" y="98.6532" width="1.37506" height="23.376" transform="rotate(-21.9906 45.4789 98.6532)" fill="#CCBB99"/>
<rect x="48.7253" y="96.1081" width="1.37506" height="23.376" transform="rotate(-21.9906 48.7253 96.1081)" fill="#CCBB99"/>
<rect x="52.1362" y="93.4341" width="1.37506" height="23.376" transform="rotate(-21.9906 52.1362 93.4341)" fill="#CCBB99"/>
</g>
<path d="M157.948 61.5687C154.534 55.6561 89.129 84.8995 53.5611 101.801C51.5089 102.776 49.0566 102.012 47.9205 100.044C46.6338 97.8152 47.5421 94.9672 49.8923 93.9187C91.5077 75.353 168.091 43.8999 173.206 52.7592C179.831 64.234 68.7174 127.256 71.4151 131.928C74.1127 136.6 197.298 59.2495 206.131 74.5492C214.965 89.849 67.8002 169.715 70.0085 173.539C72.2169 177.364 214.965 89.849 223.798 105.149C232.631 120.449 108.145 186.736 110.563 190.925C112.982 195.114 215.164 125.433 226.206 144.558C234.758 159.369 162.213 209.849 121.325 235.527C119.174 236.878 116.336 236.163 115.066 233.962C113.886 231.918 114.482 229.312 116.433 227.983C151.446 204.141 214.365 159.287 210.948 153.367C206.531 145.718 92.0919 211.789 87.6752 204.139C83.2585 196.489 215.164 125.433 208.539 113.958C201.914 102.483 61.375 193.824 54.75 182.349C48.125 170.874 195.289 91.0086 190.873 83.3588C186.456 75.7089 56.7585 150.59 52.3419 142.94C47.9252 135.29 162.364 69.2186 157.948 61.5687Z" fill="#795327"/>
</svg>
