<svg width="269" height="269" viewBox="0 0 269 269" fill="none" xmlns="http://www.w3.org/2000/svg">
<circle cx="134.5" cy="134.5" r="134.5" fill="#E0C795"/>
<circle cx="134.5" cy="134.5" r="116.5" fill="#FCDC6B"/>
<path d="M172.147 150.52C176.834 141.686 172.687 128.166 163.853 123.48L154.48 141.147L172.147 150.52Z" fill="#F0ACAC"/>
<path d="M136.093 96.4686C126.781 92.8234 113.823 98.4902 110.178 107.802L128.802 115.093L136.093 96.4686Z" fill="#F0ACAC"/>
<path d="M107.595 145.105C98.85 140.255 85.2549 144.15 80.4048 152.895L97.8951 162.595L107.595 145.105Z" fill="#F0ACAC"/>
<path d="M60.1696 204.023C68.0964 197.927 69.9268 183.904 63.8304 175.977L47.9768 188.17L60.1696 204.023Z" fill="#F0ACAC"/>
<path d="M169 188C169 178 159 168 149 168V188H169Z" fill="#F0ACAC"/>
<path d="M135 235C135 225 125 215 115 215V235H135Z" fill="#F0ACAC"/>
<path d="M217.699 179.661C227.18 176.481 233.481 163.82 230.301 154.339L211.339 160.699L217.699 179.661Z" fill="#F0ACAC"/>
<path d="M231 104C231 94 221 84 211 84V104H231Z" fill="#F0ACAC"/>
<path d="M119.819 46.1257C128.973 50.1531 142.153 45.0274 146.181 35.8743L127.874 27.8194L119.819 46.1257Z" fill="#F0ACAC"/>
<path d="M69.1402 90.4957C62.818 82.7479 48.7479 81.3222 41 87.6445L53.6445 103.14L69.1402 90.4957Z" fill="#F0ACAC"/>
<path d="M170 94C170 84 160 74 150 74V94H170Z" fill="#F0ACAC"/>
<path d="M99.2671 53.8841C97.9311 53.2227 94.3021 52.6237 90.4735 55.5188C86.3258 58.6551 85.8337 62.3704 86.1062 63.836L98.4313 70.1875L103.217 66.5686L99.2671 53.8841Z" fill="#FFF72F"/>
<path d="M178.511 100.168C177.169 99.5191 173.534 98.9535 169.732 101.884C165.614 105.058 165.156 108.778 165.442 110.241L177.825 116.479L182.577 112.816L178.511 100.168Z" fill="#FFF72F"/>
<path d="M133.212 152.659C133.616 151.224 133.537 147.547 129.987 144.316C126.141 140.817 122.399 141.017 121.008 141.554L117.033 154.838L121.471 158.876L133.212 152.659Z" fill="#FFF72F"/>
<path d="M195.285 168.089C193.923 167.483 190.272 167.033 186.565 170.082C182.549 173.385 182.209 177.117 182.541 178.57L195.115 184.413L199.749 180.602L195.285 168.089Z" fill="#FFF72F"/>
<path d="M191.285 202.089C189.923 201.483 186.272 201.033 182.565 204.082C178.549 207.385 178.209 211.117 178.541 212.57L191.115 218.413L195.749 214.602L191.285 202.089Z" fill="#FFF72F"/>
<path d="M103.5 196C102.833 194.667 100.3 192 95.5 192C90.3 192 87.6667 194.667 87 196L93 208.5H99L103.5 196Z" fill="#FFF72F"/>
<path d="M158.03 208.309C158.858 207.069 159.918 203.547 157.539 199.378C154.962 194.862 151.341 193.896 149.853 193.978L141.969 205.384L144.943 210.596L158.03 208.309Z" fill="#FFF72F"/>
<path d="M53.055 163.506C53.2389 164.985 54.7379 168.344 59.2632 169.944C64.1655 171.678 67.5374 170.043 68.6105 169.008L67.1224 155.223L61.4658 153.222L53.055 163.506Z" fill="#FFF72F"/>
<path d="M44.5039 113.465C43.5163 114.581 41.9895 117.928 43.7832 122.38C45.7265 127.203 49.184 128.649 50.6699 128.769L60.0221 118.533L57.7799 112.968L44.5039 113.465Z" fill="#FFF72F"/>
<path d="M175.582 62.9311C175.698 61.4449 174.901 57.8541 170.788 55.3804C166.331 52.7006 162.7 53.6289 161.442 54.4279L160.142 68.2323L165.284 71.3244L175.582 62.9311Z" fill="#FFF72F"/>
<path d="M220.944 142.547C221.6 141.209 222.185 137.577 219.275 133.76C216.123 129.624 212.406 129.147 210.941 129.425L204.637 141.775L208.275 146.546L220.944 142.547Z" fill="#FFF72F"/>
<path d="M93.3118 105.271C94.2926 104.149 95.799 100.793 93.9783 96.3519C92.0058 91.5405 88.5395 90.1155 87.053 90.0044L77.7631 100.298L80.039 105.849L93.3118 105.271Z" fill="#FFF72F"/>
</svg>
