<svg width="269" height="269" viewBox="0 0 269 269" fill="none" xmlns="http://www.w3.org/2000/svg">
<circle cx="134.5" cy="134.5" r="134.5" fill="#E0C795"/>
<circle cx="134.5" cy="134.5" r="116.5" fill="#FCDC6B"/>
<circle cx="89.5" cy="122.5" r="14.5" fill="#E75757"/>
<circle cx="55.5" cy="176.5" r="14.5" fill="#E75757"/>
<circle cx="118.5" cy="215.5" r="14.5" fill="#E75757"/>
<circle cx="142.5" cy="167.5" r="14.5" fill="#E75757"/>
<circle cx="206.5" cy="182.5" r="14.5" fill="#E75757"/>
<circle cx="214.5" cy="98.5" r="14.5" fill="#E75757"/>
<path d="M177 105.5C177 113.508 170.508 120 162.5 120C154.492 120 148 113.508 148 105.5C148 97.4919 154.492 91 162.5 91C170.508 91 177 97.4919 177 105.5Z" fill="#E75757"/>
<path d="M148 53.5C148 61.5081 141.508 68 133.5 68C125.492 68 119 61.5081 119 53.5C119 45.4919 125.492 39 133.5 39C141.508 39 148 45.4919 148 53.5Z" fill="#E75757"/>
<circle cx="60.5" cy="76.5" r="14.5" fill="#E75757"/>
</svg>
