<svg width="269" height="269" viewBox="0 0 269 269" fill="none" xmlns="http://www.w3.org/2000/svg">
<circle cx="134.5" cy="134.5" r="134.5" fill="#E0C795"/>
<circle cx="134.5" cy="134.5" r="116.5" fill="#FCDC6B"/>
<circle cx="89.5" cy="122.5" r="14.5" fill="#E75757"/>
<circle cx="55.5" cy="176.5" r="14.5" fill="#E75757"/>
<circle cx="118.5" cy="215.5" r="14.5" fill="#E75757"/>
<circle cx="142.5" cy="167.5" r="14.5" fill="#E75757"/>
<circle cx="206.5" cy="182.5" r="14.5" fill="#E75757"/>
<circle cx="214.5" cy="98.5" r="14.5" fill="#E75757"/>
<path d="M177 105.5C177 113.508 170.508 120 162.5 120C154.492 120 148 113.508 148 105.5C148 97.4919 154.492 91 162.5 91C170.508 91 177 97.4919 177 105.5Z" fill="#E75757"/>
<path d="M148 53.5C148 61.5081 141.508 68 133.5 68C125.492 68 119 61.5081 119 53.5C119 45.4919 125.492 39 133.5 39C141.508 39 148 45.4919 148 53.5Z" fill="#E75757"/>
<circle cx="60.5" cy="76.5" r="14.5" fill="#E75757"/>
<path d="M88.3792 70.2732C83.1422 70.2732 84.1896 76.5841 80 76.5841V72.3768H81.0474C83.1422 72.3768 83.1422 68.1696 88.3792 67.1178C93.6163 66.066 93.6163 72.3768 95.7111 73.4286C97.8059 74.4804 99.9007 71.325 101.995 69.2214C104.09 67.1178 106.185 68.1696 108.28 73.4286C110.375 78.6877 107.233 80.3804 107.233 81.8431V84.9985H104.09V81.8431C104.09 78.6877 107.48 79.6835 106.185 74.4804C104.09 66.0659 99.9007 76.5841 95.7111 76.5841C91.5214 76.5841 93.6163 70.2732 88.3792 70.2732Z" fill="#538A3F"/>
<path d="M46.7818 105.45C47.2787 100.237 40.8969 100.681 41.2944 96.51L45.4827 96.9092L45.3834 97.9519C45.1846 100.037 49.3728 100.436 49.9229 105.75C50.4731 111.063 44.1907 110.464 42.9449 112.45C41.699 114.435 44.6415 116.82 46.5368 119.105C48.4322 121.39 47.1863 123.375 41.7522 124.962C36.3182 126.548 34.9312 123.259 33.4751 123.121L30.334 122.821L30.6321 119.693L33.7733 119.993C36.9145 120.292 35.6015 123.572 40.904 122.777C49.4793 121.49 39.4061 116.321 39.8037 112.15C40.2012 107.979 46.2848 110.664 46.7818 105.45Z" fill="#538A3F"/>
<path d="M165.696 76.9105C163.244 72.2827 158.158 76.1623 156.197 72.46L159.915 70.4906L160.405 71.4162C161.385 73.2673 165.103 71.298 168.484 75.4335C171.865 79.5691 166.288 82.5231 166.339 84.8666C166.39 87.2101 170.159 87.5842 172.999 88.4507C175.838 89.3171 175.889 91.6606 172.222 95.9735C168.556 100.286 165.589 98.3019 164.296 98.9866L161.508 100.464L160.037 97.6868L162.826 96.2099C165.614 94.7328 166.321 98.1948 170.312 94.6146C176.768 88.8248 165.512 90.0459 163.551 86.3436C161.59 82.6413 168.147 81.5384 165.696 76.9105Z" fill="#538A3F"/>
<path d="M136.157 34.0081C131.07 32.7626 130.587 39.1415 126.518 38.1452L127.518 34.0586L128.535 34.3077C130.57 34.8059 131.571 30.7194 136.908 30.9432C142.244 31.167 140.744 37.2968 142.528 38.8166C144.313 40.3364 147.098 37.7697 149.633 36.2246C152.168 34.6795 153.952 36.1993 154.737 41.8056C155.521 47.4119 152.066 48.3089 151.718 49.7296L150.968 52.7945L147.916 52.0472L148.666 48.9824C149.416 45.9174 152.472 47.6909 152.452 42.3291C152.418 33.6578 145.847 42.8778 141.778 41.8815C137.708 40.8851 141.244 35.2535 136.157 34.0081Z" fill="#538A3F"/>
<path d="M88.009 139.575C90.6037 135.026 84.603 132.809 86.6788 129.17L90.3333 131.254L89.8144 132.164C88.7765 133.984 92.431 136.068 90.7499 141.138C89.0688 146.209 83.587 143.082 81.6355 144.38C79.6839 145.679 81.3869 149.062 82.1763 151.924C82.9657 154.786 81.0141 156.084 75.4081 155.298C69.802 154.512 69.8885 150.944 68.6179 150.219L65.8771 148.656L67.4339 145.926L70.1748 147.49C72.9157 149.053 70.371 151.504 75.5324 152.957C83.8793 155.307 76.8188 146.456 78.8946 142.817C80.9703 139.178 85.4143 144.124 88.009 139.575Z" fill="#538A3F"/>
<path d="M224.009 145.575C226.604 141.026 220.603 138.809 222.679 135.17L226.333 137.254L225.814 138.164C224.776 139.984 228.431 142.068 226.75 147.138C225.069 152.209 219.587 149.082 217.635 150.38C215.684 151.679 217.387 155.062 218.176 157.924C218.966 160.786 217.014 162.084 211.408 161.298C205.802 160.512 205.888 156.944 204.618 156.219L201.877 154.656L203.434 151.926L206.175 153.49C208.916 155.053 206.371 157.504 211.532 158.957C219.879 161.307 212.819 152.456 214.894 148.817C216.97 145.178 221.414 150.124 224.009 145.575Z" fill="#538A3F"/>
<path d="M87.8375 206.728C85.3681 211.346 91.4272 213.398 89.4517 217.093L85.7415 215.109L86.2354 214.185C87.2232 212.338 83.513 210.354 85.0549 205.24C86.5968 200.126 92.162 203.101 94.0773 201.75C95.9926 200.399 94.1978 197.064 93.3305 194.224C92.4632 191.385 94.3785 190.034 100.004 190.666C105.629 191.299 105.64 194.868 106.93 195.558L109.713 197.046L108.231 199.816L105.449 198.329C102.666 196.841 105.143 194.321 99.9437 193.01C91.5356 190.889 98.8355 199.543 96.86 203.238C94.8844 206.933 90.307 202.11 87.8375 206.728Z" fill="#538A3F"/>
<path d="M154.957 151.938C156.434 156.962 162.193 154.177 163.375 158.196L159.339 159.383L159.043 158.378C158.453 156.368 154.416 157.555 151.93 152.828C149.443 148.1 155.498 146.32 155.916 144.013C156.334 141.707 152.716 140.587 150.107 139.171C147.498 137.755 147.916 135.448 152.371 131.955C156.825 128.462 159.336 130.999 160.739 130.586L163.766 129.696L164.653 132.711L161.625 133.601C158.598 134.491 158.597 130.958 153.971 133.668C146.489 138.051 157.762 139.104 158.943 143.123C160.125 147.143 153.48 146.913 154.957 151.938Z" fill="#538A3F"/>
<path d="M163.957 220.938C165.434 225.962 171.193 223.177 172.375 227.196L168.339 228.383L168.043 227.378C167.453 225.368 163.416 226.555 160.93 221.828C158.443 217.1 164.498 215.32 164.916 213.013C165.334 210.707 161.716 209.587 159.107 208.171C156.498 206.755 156.916 204.448 161.371 200.955C165.825 197.462 168.336 199.999 169.739 199.586L172.766 198.696L173.653 201.711L170.625 202.601C167.598 203.491 167.597 199.958 162.971 202.668C155.489 207.051 166.762 208.104 167.943 212.123C169.125 216.143 162.48 215.913 163.957 220.938Z" fill="#538A3F"/>
<circle cx="175" cy="172" r="9" fill="#1A1717"/>
<circle cx="175" cy="172" r="4" fill="#FCDC6B"/>
<circle cx="229" cy="151" r="9" fill="#1A1717"/>
<circle cx="229" cy="151" r="4" fill="#FCDC6B"/>
<circle cx="188" cy="133" r="9" fill="#1A1717"/>
<circle cx="188" cy="133" r="4" fill="#FCDC6B"/>
<circle cx="50" cy="138" r="9" fill="#1A1717"/>
<circle cx="50" cy="138" r="4" fill="#FCDC6B"/>
<circle cx="104" cy="101" r="9" fill="#1A1717"/>
<circle cx="104" cy="101" r="4" fill="#FCDC6B"/>
<circle cx="84" cy="48" r="9" fill="#1A1717"/>
<circle cx="84" cy="48" r="4" fill="#FCDC6B"/>
<circle cx="180" cy="55" r="9" fill="#1A1717"/>
<circle cx="180" cy="55" r="4" fill="#FCDC6B"/>
<circle cx="126" cy="135" r="9" fill="#1A1717"/>
<circle cx="126" cy="135" r="4" fill="#FCDC6B"/>
<circle cx="144" cy="199" r="9" fill="#1A1717"/>
<circle cx="144" cy="199" r="4" fill="#FCDC6B"/>
<circle cx="86" cy="185" r="9" fill="#1A1717"/>
<circle cx="86" cy="185" r="4" fill="#FCDC6B"/>
<path d="M190.358 78.6323C188.088 74.1775 184.262 71.0763 177.58 74.4819C170.007 78.3416 169.159 84.3857 171.202 88.395C173.246 92.4043 175.212 86.3517 175.212 86.3517C175.212 86.3517 180.129 86.0902 180.81 87.4266C181.491 88.7631 179.945 91.2347 180.853 93.0167C181.761 94.7986 183.089 92.9994 185.317 91.8642C187.544 90.729 190.889 89.5852 190.208 88.2488C189.527 86.9123 185.282 87.3922 184.374 85.6103C183.466 83.8284 183.23 82.2649 185.458 81.1297C187.685 79.9945 192.628 83.0871 190.358 78.6323Z" fill="#A08C63"/>
<path d="M72.1988 86.9365C72.5379 81.948 70.8478 77.3227 63.3651 76.814C54.8846 76.2374 51.0535 80.9885 50.7483 85.4781C50.443 89.9678 55.2379 85.7834 55.2379 85.7834C55.2379 85.7834 59.5919 88.084 59.4901 89.5805C59.3884 91.0771 56.7924 92.4041 56.6567 94.3995C56.5211 96.3948 58.5843 95.5328 61.0785 95.7024C63.5728 95.872 67.0308 96.6082 67.1326 95.1117C67.2343 93.6151 63.3453 91.8473 63.4809 89.8519C63.6166 87.8565 64.2172 86.3939 66.7114 86.5634C69.2057 86.733 71.8596 91.925 72.1988 86.9365Z" fill="#A08C63"/>
<path d="M173.316 189.805C175.93 194.067 179.988 196.858 186.381 192.936C193.627 188.492 193.996 182.4 191.643 178.564C189.291 174.728 187.807 180.917 187.807 180.917C187.807 180.917 182.926 181.565 182.142 180.286C181.357 179.008 182.704 176.422 181.659 174.717C180.613 173.012 179.431 174.91 177.3 176.217C175.169 177.524 171.924 178.928 172.708 180.207C173.492 181.485 177.686 180.673 178.732 182.378C179.778 184.082 180.136 185.622 178.004 186.93C175.873 188.237 170.702 185.543 173.316 189.805Z" fill="#A08C63"/>
<path d="M116.162 213.064C118.187 208.493 118.181 203.568 111.324 200.531C103.552 197.089 98.3269 200.243 96.5045 204.357C94.682 208.472 100.619 206.18 100.619 206.18C100.619 206.18 103.923 209.831 103.316 211.202C102.708 212.574 99.8152 212.933 99.0052 214.761C98.1952 216.59 100.429 216.486 102.715 217.498C105 218.511 107.998 220.385 108.606 219.014C109.213 217.642 106.163 214.651 106.973 212.822C107.783 210.994 108.848 209.825 111.134 210.837C113.419 211.849 114.138 217.636 116.162 213.064Z" fill="#A08C63"/>
<path d="M243.607 114.393C245.631 109.822 245.625 104.897 238.768 101.86C230.996 98.4174 225.771 101.572 223.949 105.686C222.126 109.801 228.063 107.509 228.063 107.509C228.063 107.509 231.368 111.16 230.76 112.531C230.153 113.903 227.259 114.262 226.449 116.09C225.639 117.919 227.873 117.815 230.159 118.827C232.445 119.839 235.442 121.714 236.05 120.343C236.657 118.971 233.607 115.98 234.417 114.151C235.227 112.322 236.292 111.153 238.578 112.166C240.864 113.178 241.582 118.965 243.607 114.393Z" fill="#A08C63"/>
<path d="M54.5627 161.957C54.5295 156.957 52.4996 152.471 44.9997 152.521C36.4999 152.577 33.0333 157.601 33.0632 162.1C33.0932 166.6 37.5631 162.071 37.5631 162.071C37.5631 162.071 42.0763 164.041 42.0863 165.54C42.0963 167.04 39.6063 168.557 39.6196 170.557C39.633 172.557 41.6263 171.544 44.1262 171.527C46.6261 171.51 50.1294 171.987 50.1194 170.487C50.1094 168.987 46.0995 167.514 46.0862 165.514C46.0729 163.514 46.5629 162.011 49.0629 161.994C51.5628 161.977 54.596 166.957 54.5627 161.957Z" fill="#A08C63"/>
<path d="M109.179 31.8258C104.394 33.2749 100.667 36.4933 102.84 43.6714C105.304 51.8066 111.104 53.7072 115.41 52.403C119.717 51.0988 114.106 48.0962 114.106 48.0962C114.106 48.0962 114.716 43.2096 116.152 42.7749C117.587 42.3402 119.748 44.2981 121.662 43.7185C123.576 43.1388 122.039 41.5145 121.315 39.1218C120.59 36.7291 120.054 33.2344 118.619 33.6691C117.183 34.1039 116.907 38.3669 114.992 38.9466C113.078 39.5262 111.498 39.4824 110.773 37.0897C110.049 34.697 113.965 30.3767 109.179 31.8258Z" fill="#A08C63"/>
<path d="M113.903 157.184C117.551 153.765 119.467 149.228 114.339 143.756C108.526 137.554 102.485 138.419 99.2011 141.496C95.9176 144.573 102.278 144.78 102.278 144.78C102.278 144.78 103.896 149.431 102.802 150.456C101.707 151.482 98.903 150.684 97.4437 152.051C95.9843 153.419 98.0816 154.194 99.7911 156.019C101.501 157.843 103.529 160.738 104.624 159.713C105.718 158.687 104.077 154.743 105.537 153.375C106.996 152.007 108.432 151.347 110.142 153.171C111.851 154.995 110.255 160.603 113.903 157.184Z" fill="#A08C63"/>
</svg>
