<svg width="269" height="269" viewBox="0 0 269 269" fill="none" xmlns="http://www.w3.org/2000/svg">
<circle cx="134.5" cy="134.5" r="134.5" fill="#E0C795"/>
<circle cx="134.5" cy="134.5" r="116.5" fill="#FCDC6B"/>
<path d="M87.2145 73.4371C81.9774 73.4371 83.0249 79.748 78.8352 79.748V75.5407H79.8826C81.9774 75.5407 81.9774 71.3335 87.2145 70.2817C92.4515 69.2299 92.4515 75.5408 94.5463 76.5926C96.6411 77.6444 98.7359 74.489 100.831 72.3853C102.926 70.2817 105.02 71.3336 107.115 76.5926C109.21 81.8516 106.068 83.5444 106.068 85.0071V88.1625H102.926V85.0071C102.926 81.8516 106.316 82.8474 105.02 77.6444C102.926 69.2299 98.7359 79.748 94.5463 79.748C90.3567 79.748 92.4515 73.4371 87.2145 73.4371Z" fill="#538A3F"/>
<path d="M45.617 108.614C46.1139 103.401 39.7321 103.845 40.1297 99.6739L44.318 100.073L44.2186 101.116C44.0198 103.201 48.208 103.6 48.7582 108.914C49.3083 114.227 43.0259 113.628 41.7801 115.614C40.5343 117.599 43.4767 119.984 45.372 122.269C47.2674 124.554 46.0215 126.539 40.5875 128.126C35.1534 129.712 33.7665 126.423 32.3103 126.285L29.1692 125.985L29.4673 122.857L32.6085 123.157C35.7497 123.456 34.4367 126.736 39.7392 125.941C48.3145 124.654 38.2414 119.485 38.6389 115.314C39.0364 111.143 45.1201 113.828 45.617 108.614Z" fill="#538A3F"/>
<path d="M164.531 80.0745C162.079 75.4466 156.993 79.3262 155.032 75.6239L158.75 73.6546L159.24 74.5801C160.221 76.4313 163.938 74.4619 167.319 78.5975C170.7 82.733 165.123 85.687 165.174 88.0305C165.225 90.374 168.994 90.7481 171.834 91.6146C174.673 92.4811 174.724 94.8246 171.058 99.1374C167.391 103.45 164.424 101.466 163.132 102.151L160.343 103.628L158.872 100.851L161.661 99.3738C164.449 97.8968 165.156 101.359 169.148 97.7786C175.603 91.9887 164.347 93.2098 162.386 89.5075C160.425 85.8052 166.982 84.7024 164.531 80.0745Z" fill="#538A3F"/>
<path d="M134.992 37.172C129.906 35.9266 129.422 42.3055 125.353 41.3091L126.353 37.2225L127.371 37.4716C129.405 37.9698 130.406 33.8833 135.743 34.1071C141.08 34.3309 139.579 40.4607 141.363 41.9805C143.148 43.5003 145.933 40.9336 148.468 39.3885C151.003 37.8434 152.788 39.3633 153.572 44.9696C154.356 50.5759 150.901 51.4728 150.553 52.8936L149.803 55.9584L146.751 55.2112L147.501 52.1463C148.252 49.0814 151.308 50.8548 151.287 45.493C151.253 36.8217 144.682 46.0418 140.613 45.0454C136.544 44.0491 140.079 38.4174 134.992 37.172Z" fill="#538A3F"/>
<path d="M86.8442 142.739C89.4389 138.19 83.4382 135.973 85.5139 132.334L89.1685 134.418L88.6496 135.328C87.6117 137.148 91.2662 139.232 89.5851 144.302C87.904 149.373 82.4222 146.246 80.4706 147.544C78.5191 148.843 80.2221 152.226 81.0115 155.088C81.8008 157.949 79.8493 159.248 74.2432 158.462C68.6372 157.676 68.7237 154.108 67.4531 153.383L64.7123 151.82L66.2691 149.09L69.01 150.654C71.7509 152.217 69.2062 154.668 74.3675 156.121C82.7145 158.471 75.6539 149.62 77.7297 145.981C79.8055 142.342 84.2494 147.288 86.8442 142.739Z" fill="#538A3F"/>
<path d="M222.844 148.739C225.439 144.19 219.438 141.973 221.514 138.334L225.168 140.418L224.65 141.328C223.612 143.148 227.266 145.232 225.585 150.302C223.904 155.373 218.422 152.246 216.471 153.544C214.519 154.843 216.222 158.226 217.011 161.088C217.801 163.949 215.849 165.248 210.243 164.462C204.637 163.676 204.724 160.108 203.453 159.383L200.712 157.82L202.269 155.09L205.01 156.654C207.751 158.217 205.206 160.668 210.367 162.121C218.714 164.471 211.654 155.62 213.73 151.981C215.805 148.342 220.249 153.288 222.844 148.739Z" fill="#538A3F"/>
<path d="M86.6728 209.892C84.2034 214.51 90.2625 216.562 88.2869 220.257L84.5768 218.273L85.0706 217.349C86.0584 215.502 82.3483 213.518 83.8902 208.404C85.432 203.29 90.9973 206.265 92.9126 204.914C94.8279 203.563 93.033 200.228 92.1657 197.388C91.2984 194.549 93.2137 193.198 98.8392 193.83C104.465 194.463 104.476 198.032 105.766 198.722L108.548 200.209L107.067 202.98L104.284 201.493C101.501 200.005 103.978 197.485 98.7789 196.174C90.3708 194.053 97.6707 202.707 95.6952 206.402C93.7197 210.097 89.1422 205.274 86.6728 209.892Z" fill="#538A3F"/>
<path d="M153.792 155.101C155.27 160.126 161.029 157.341 162.21 161.36L158.174 162.547L157.879 161.542C157.288 159.532 153.251 160.719 150.765 155.992C148.279 151.264 154.333 149.484 154.751 147.177C155.17 144.871 151.551 143.751 148.942 142.335C146.333 140.918 146.751 138.612 151.206 135.119C155.66 131.626 158.171 134.163 159.574 133.75L162.601 132.86L163.488 135.875L160.461 136.765C157.433 137.655 157.432 134.121 152.806 136.832C145.324 141.215 156.597 142.268 157.779 146.287C158.96 150.307 152.315 150.077 153.792 155.101Z" fill="#538A3F"/>
<path d="M162.792 224.101C164.27 229.126 170.029 226.341 171.21 230.36L167.174 231.547L166.879 230.542C166.288 228.532 162.251 229.719 159.765 224.992C157.279 220.264 163.333 218.484 163.751 216.177C164.17 213.871 160.551 212.751 157.942 211.335C155.333 209.918 155.751 207.612 160.206 204.119C164.66 200.626 167.171 203.163 168.574 202.75L171.601 201.86L172.488 204.875L169.461 205.765C166.433 206.655 166.432 203.121 161.806 205.832C154.324 210.215 165.597 211.268 166.779 215.287C167.96 219.307 161.315 219.077 162.792 224.101Z" fill="#538A3F"/>
<circle cx="178" cy="172" r="9" fill="#1A1717"/>
<circle cx="178" cy="172" r="4" fill="#FCDC6B"/>
<circle cx="232" cy="151" r="9" fill="#1A1717"/>
<circle cx="232" cy="151" r="4" fill="#FCDC6B"/>
<circle cx="191" cy="133" r="9" fill="#1A1717"/>
<circle cx="191" cy="133" r="4" fill="#FCDC6B"/>
<circle cx="53" cy="138" r="9" fill="#1A1717"/>
<circle cx="53" cy="138" r="4" fill="#FCDC6B"/>
<circle cx="107" cy="101" r="9" fill="#1A1717"/>
<circle cx="107" cy="101" r="4" fill="#FCDC6B"/>
<circle cx="87" cy="48" r="9" fill="#1A1717"/>
<circle cx="87" cy="48" r="4" fill="#FCDC6B"/>
<circle cx="183" cy="55" r="9" fill="#1A1717"/>
<circle cx="183" cy="55" r="4" fill="#FCDC6B"/>
<circle cx="129" cy="135" r="9" fill="#1A1717"/>
<circle cx="129" cy="135" r="4" fill="#FCDC6B"/>
<circle cx="147" cy="199" r="9" fill="#1A1717"/>
<circle cx="147" cy="199" r="4" fill="#FCDC6B"/>
<circle cx="89" cy="185" r="9" fill="#1A1717"/>
<circle cx="89" cy="185" r="4" fill="#FCDC6B"/>
<path d="M186.358 82.6323C184.088 78.1775 180.262 75.0763 173.58 78.4819C166.007 82.3416 165.159 88.3857 167.202 92.395C169.246 96.4043 171.212 90.3516 171.212 90.3516C171.212 90.3516 176.129 90.0902 176.81 91.4266C177.491 92.7631 175.945 95.2347 176.853 97.0166C177.761 98.7986 179.089 96.9994 181.317 95.8642C183.544 94.729 186.889 93.5852 186.208 92.2488C185.527 90.9123 181.282 91.3922 180.374 89.6103C179.466 87.8284 179.23 86.2649 181.458 85.1297C183.685 83.9945 188.628 87.0871 186.358 82.6323Z" fill="#A08C63"/>
<path d="M68.1988 90.9365C68.5379 85.948 66.8478 81.3227 59.3651 80.814C50.8846 80.2374 47.0535 84.9885 46.7483 89.4781C46.443 93.9677 51.2379 89.7834 51.2379 89.7834C51.2379 89.7834 55.5919 92.084 55.4901 93.5805C55.3884 95.0771 52.7924 96.4041 52.6567 98.3994C52.5211 100.395 54.5843 99.5328 57.0785 99.7024C59.5728 99.872 63.0308 100.608 63.1326 99.1117C63.2343 97.6151 59.3453 95.8473 59.4809 93.8519C59.6166 91.8565 60.2172 90.3939 62.7114 90.5634C65.2057 90.733 67.8596 95.925 68.1988 90.9365Z" fill="#A08C63"/>
<path d="M169.316 193.805C171.93 198.067 175.988 200.858 182.381 196.936C189.627 192.492 189.996 186.4 187.643 182.564C185.291 178.728 183.807 184.917 183.807 184.917C183.807 184.917 178.926 185.565 178.142 184.286C177.357 183.008 178.704 180.422 177.659 178.717C176.613 177.012 175.431 178.91 173.3 180.217C171.169 181.524 167.924 182.928 168.708 184.207C169.492 185.485 173.686 184.673 174.732 186.378C175.778 188.082 176.136 189.622 174.004 190.93C171.873 192.237 166.702 189.543 169.316 193.805Z" fill="#A08C63"/>
<path d="M112.162 217.064C114.187 212.493 114.181 207.568 107.324 204.531C99.5519 201.089 94.3269 204.243 92.5045 208.357C90.682 212.472 96.6189 210.18 96.6189 210.18C96.6189 210.18 99.9234 213.831 99.3159 215.202C98.7085 216.574 95.8152 216.933 95.0052 218.761C94.1952 220.59 96.4289 220.486 98.7147 221.498C101 222.511 103.998 224.385 104.606 223.014C105.213 221.642 102.163 218.651 102.973 216.822C103.783 214.994 104.848 213.825 107.134 214.837C109.419 215.849 110.138 221.636 112.162 217.064Z" fill="#A08C63"/>
<path d="M239.607 118.393C241.631 113.822 241.625 108.897 234.768 105.86C226.996 102.417 221.771 105.572 219.949 109.686C218.126 113.801 224.063 111.508 224.063 111.508C224.063 111.508 227.368 115.16 226.76 116.531C226.153 117.903 223.259 118.262 222.449 120.09C221.639 121.919 223.873 121.815 226.159 122.827C228.445 123.839 231.442 125.714 232.05 124.343C232.657 122.971 229.607 119.98 230.417 118.151C231.227 116.322 232.292 115.153 234.578 116.166C236.864 117.178 237.582 122.965 239.607 118.393Z" fill="#A08C63"/>
<path d="M50.5627 165.957C50.5295 160.958 48.4996 156.471 40.9997 156.521C32.4999 156.577 29.0333 161.601 29.0632 166.1C29.0932 170.6 33.5631 166.071 33.5631 166.071C33.5631 166.071 38.0763 168.041 38.0863 169.541C38.0963 171.04 35.6063 172.557 35.6196 174.557C35.633 176.557 37.6263 175.544 40.1262 175.527C42.6261 175.51 46.1294 175.987 46.1194 174.487C46.1094 172.987 42.0995 171.514 42.0862 169.514C42.0729 167.514 42.5629 166.011 45.0629 165.994C47.5628 165.977 50.596 170.957 50.5627 165.957Z" fill="#A08C63"/>
<path d="M105.179 35.8258C100.394 37.2749 96.6665 40.4933 98.8402 47.6714C101.304 55.8066 107.104 57.7072 111.41 56.403C115.717 55.0988 110.106 52.0961 110.106 52.0961C110.106 52.0961 110.716 47.2096 112.152 46.7749C113.587 46.3402 115.748 48.2981 117.662 47.7185C119.576 47.1388 118.039 45.5145 117.315 43.1218C116.59 40.7291 116.054 37.2344 114.619 37.6691C113.183 38.1039 112.907 42.3669 110.992 42.9466C109.078 43.5262 107.498 43.4824 106.773 41.0897C106.049 38.697 109.965 34.3767 105.179 35.8258Z" fill="#A08C63"/>
<path d="M109.903 161.184C113.551 157.765 115.467 153.228 110.339 147.756C104.526 141.554 98.4846 142.419 95.2011 145.496C91.9176 148.573 98.2782 148.78 98.2782 148.78C98.2782 148.78 99.896 153.431 98.8015 154.456C97.707 155.482 94.903 154.684 93.4437 156.051C91.9843 157.419 94.0816 158.194 95.7911 160.019C97.5006 161.843 99.5291 164.738 100.624 163.713C101.718 162.687 100.077 158.743 101.537 157.375C102.996 156.007 104.432 155.347 106.142 157.171C107.851 158.995 106.255 164.603 109.903 161.184Z" fill="#A08C63"/>
</svg>
